<?xml version="1.0" standalone="no"?>
<!DOCTYPE svg PUBLIC "-//W3C//DTD SVG 1.1//EN" "http://www.w3.org/Graphics/SVG/1.1/DTD/svg11.dtd" >
<svg xmlns="http://www.w3.org/2000/svg">
<metadata></metadata>
<defs>
<font id="brownthin" horiz-adv-x="1175" >
<font-face units-per-em="2048" ascent="1638" descent="-410" />
<missing-glyph horiz-adv-x="552" />
<glyph unicode="&#xfb01;" horiz-adv-x="1146" d="M20 864v37h267v162q0 131 14 202t61 121q82 89 222 89q39 0 82 -11l-9 -34q-40 8 -69 8q-124 0 -197 -80q-40 -45 -51.5 -111.5t-11.5 -185.5v-160h624v-901h-41v864h-583v-864h-41v864h-267zM870 1229q0 26 18 43.5t44 17.5t43.5 -17.5t17.5 -43.5t-17.5 -44t-43.5 -18 t-44 18t-18 44z" />
<glyph unicode="&#xfb02;" horiz-adv-x="1146" d="M20 864v37h267v162q0 131 14 202t61 121q82 89 222 89q39 0 82 -11l-9 -34q-40 8 -69 8q-124 0 -197 -80q-40 -45 -51.5 -111.5t-11.5 -185.5v-160h583v553h41v-1454h-41v864h-583v-864h-41v864h-267z" />
<glyph unicode="&#xfb03;" horiz-adv-x="1822" d="M20 864v37h267v162q0 131 14 202t61 121q82 89 222 89q39 0 82 -11l-9 -34q-40 8 -69 8q-124 0 -197 -80q-40 -45 -51.5 -111.5t-11.5 -185.5v-160h635v162q0 131 14 202t61 121q82 89 222 89q38 0 81 -11l-8 -34q-40 8 -69 8q-124 0 -197 -80q-40 -45 -51.5 -111.5 t-11.5 -185.5v-160h624v-901h-41v864h-583v-864h-41v864h-635v-864h-41v864h-267zM1546 1229q0 26 18 43.5t44 17.5t43.5 -17.5t17.5 -43.5t-17.5 -44t-43.5 -18t-44 18t-18 44z" />
<glyph unicode="&#xfb04;" horiz-adv-x="1822" d="M20 864v37h267v162q0 131 14 202t61 121q82 89 222 89q39 0 82 -11l-9 -34q-40 8 -69 8q-124 0 -197 -80q-40 -45 -51.5 -111.5t-11.5 -185.5v-160h635v162q0 131 14 202t61 121q82 89 222 89q38 0 81 -11l-8 -34q-40 8 -69 8q-124 0 -197 -80q-40 -45 -51.5 -111.5 t-11.5 -185.5v-160h583v553h41v-1454h-41v864h-583v-864h-41v864h-635v-864h-41v864h-267z" />
<glyph horiz-adv-x="0" />
<glyph horiz-adv-x="682" />
<glyph unicode=" "  horiz-adv-x="552" />
<glyph unicode="&#x09;" horiz-adv-x="552" />
<glyph unicode="&#xa0;" horiz-adv-x="552" />
<glyph unicode="!" horiz-adv-x="430" d="M143 51q0 29 21.5 50.5t50.5 21.5t50.5 -21.5t21.5 -50.5t-21.5 -50t-50.5 -21t-50.5 21t-21.5 50zM195 410v1024h41v-1024h-41z" />
<glyph unicode="&#x22;" horiz-adv-x="675" d="M143 942v492h41v-492h-41zM492 942v492h40v-492h-40z" />
<glyph unicode="#" horiz-adv-x="1218" d="M88 492v36h236l102 377h-225v37h235l133 492h39l-133 -492h391l133 492h39l-133 -492h225v-37h-235l-102 -377h225v-36h-236l-131 -492h-39l131 492h-391l-131 -492h-39l131 492h-225zM362 528h392l102 377h-391z" />
<glyph unicode="$" horiz-adv-x="1075" d="M92 225l33 25q149 -234 424 -234q96 0 178 39t133 116t51 177q0 216 -233 324q-38 17 -97 40t-102.5 40t-96 41.5t-89.5 52t-69.5 63.5t-49 84.5t-16.5 106.5q0 86 34 155t89.5 109.5t116.5 62.5t124 25v217h41v-215q192 -7 328 -143l-27 -29q-129 135 -321 135 q-44 0 -90.5 -11.5t-92.5 -37t-81.5 -61.5t-57.5 -89.5t-22 -117.5q0 -53 15 -96.5t45.5 -76t64.5 -57.5t83 -47.5t90 -38t97.5 -37t93.5 -38.5q124 -56 194 -140.5t70 -222.5q0 -158 -111 -259t-278 -107v-216h-41v216q-139 4 -242.5 63.5t-187.5 181.5z" />
<glyph unicode="%" horiz-adv-x="1658" d="M123 1116q0 141 93.5 239.5t234.5 98.5t234 -98.5t93 -239.5t-93 -239.5t-234 -98.5t-234.5 98.5t-93.5 239.5zM164 1116q0 -128 80.5 -214.5t206.5 -86.5t206 86.5t80 214.5t-80 214.5t-206 86.5t-206.5 -86.5t-80.5 -214.5zM389 0l838 1434h43l-838 -1434h-43zM881 317 q0 141 93 239.5t234 98.5t234.5 -98.5t93.5 -239.5t-93.5 -239t-234.5 -98t-234 98t-93 239zM922 317q0 -128 80 -214.5t206 -86.5t206.5 86.5t80.5 214.5t-80.5 214.5t-206.5 86.5t-206 -86.5t-80 -214.5z" />
<glyph unicode="&#x26;" horiz-adv-x="1261" d="M31 399q0 79 27 146t79.5 120t106 90.5t129.5 78.5q-113 111 -162 184t-49 162q0 115 85 194.5t206 79.5q111 0 196.5 -78t85.5 -196q0 -205 -293 -357l582 -549q82 138 82 322q0 139 -39 272l39 13q41 -126 41 -285q0 -199 -94 -350l260 -246h-56l-227 213 q-82 -110 -207.5 -171.5t-283.5 -61.5q-220 0 -364 116.5t-144 302.5zM72 399q0 -75 31 -143t88.5 -122t147.5 -86t200 -32q139 0 262 57.5t200 166.5l-600 567q-53 -29 -91.5 -53t-86.5 -63.5t-78.5 -79.5t-51.5 -95.5t-21 -116.5zM203 1180q0 -37 12.5 -74t28.5 -65.5 t48.5 -65.5t55 -60t64.5 -63q135 70 208.5 149t73.5 179q0 97 -71 167t-170 70q-98 0 -174 -67.5t-76 -169.5z" />
<glyph unicode="'" horiz-adv-x="327" d="M143 942v492h41v-492h-41z" />
<glyph unicode="(" horiz-adv-x="829" d="M307 512q0 258 82 498.5t232 443.5l34 -22q-146 -197 -226.5 -432.5t-80.5 -487.5t80.5 -487.5t226.5 -432.5l-34 -22q-150 203 -232 443.5t-82 498.5z" />
<glyph unicode=")" horiz-adv-x="829" d="M174 -408q146 197 226.5 432.5t80.5 487.5t-80.5 487.5t-226.5 432.5l35 22q150 -203 231.5 -443t81.5 -499t-81.5 -499t-231.5 -443z" />
<glyph unicode="*" horiz-adv-x="991" d="M82 1122l10 35l383 -125v402h37v-402l383 123l12 -35l-381 -125l234 -325l-29 -23l-237 324l-238 -322l-31 21l236 325z" />
<glyph unicode="+" horiz-adv-x="1064" d="M123 514v37h391v391h37v-391h391v-37h-391v-391h-37v391h-391z" />
<glyph unicode="," horiz-adv-x="552" d="M166 -287l160 451h43l-160 -451h-43z" />
<glyph unicode="-" horiz-adv-x="819" d="M164 492v36h491v-36h-491z" />
<glyph unicode="." horiz-adv-x="552" d="M236 51q0 29 21 50.5t50 21.5t50.5 -21.5t21.5 -50.5t-21.5 -50t-50.5 -21t-50 21t-21 50z" />
<glyph unicode="/" horiz-adv-x="727" d="M10 0l666 1434h41l-666 -1434h-41z" />
<glyph unicode="0" horiz-adv-x="1187" d="M133 717q0 159 25 288.5t77.5 232t143.5 159.5t215 57t215 -57t143.5 -159.5t77.5 -232t25 -288.5t-25 -288.5t-77.5 -232t-143.5 -159.5t-215 -57t-215 57t-143.5 159.5t-77.5 232t-25 288.5zM174 717q0 -151 23 -274t71 -221t131 -152t195 -54t195 54t131 152t71 221 t23 274t-23 273.5t-71 220.5t-131 152t-195 54t-195 -54t-131 -152t-71 -220.5t-23 -273.5z" />
<glyph unicode="1" horiz-adv-x="757" d="M143 1198v43l338 193h21v-1434h-41v1378z" />
<glyph unicode="2" horiz-adv-x="1054" d="M92 0v20l563 664q98 115 146.5 204.5t48.5 184.5q0 145 -102.5 244.5t-249.5 99.5q-126 0 -227 -78.5t-130 -197.5l-37 12q31 132 138.5 216.5t253.5 84.5q167 0 281 -109.5t114 -269.5q0 -100 -48.5 -193.5t-148.5 -211.5l-538 -633h776v-37h-840z" />
<glyph unicode="3" horiz-adv-x="1079" d="M72 190l34 23q58 -92 158.5 -144.5t222.5 -52.5q180 0 299 124.5t119 299.5q0 183 -120 303.5t-302 120.5q-91 0 -145 -20v20l465 533h-656v37h717v-21l-446 -516q40 4 65 4q199 0 331 -131.5t132 -329.5q0 -193 -131 -326.5t-328 -133.5q-132 0 -242.5 57t-172.5 153z " />
<glyph unicode="4" horiz-adv-x="1105" d="M41 410v20l758 1004h20v-988h246v-36h-246v-410h-41v410h-737zM100 446h678v897z" />
<glyph unicode="5" horiz-adv-x="1116" d="M113 201l34 20q51 -97 148.5 -151t220.5 -54q176 0 296 120t120 294q0 172 -118.5 293t-291.5 121q-98 0 -185 -35.5t-142 -99.5l-21 2l102 723h625v-37h-594l-86 -613q121 97 301 97q193 0 322 -131.5t129 -319.5q0 -189 -131 -319.5t-326 -130.5q-134 0 -240.5 59 t-162.5 162z" />
<glyph unicode="6" horiz-adv-x="1146" d="M133 426q0 92 34.5 171.5t96.5 174.5l434 662h52l-416 -625q110 68 250 68q192 0 321 -130.5t129 -318.5t-129 -318t-321 -130q-130 0 -234.5 63t-160.5 164.5t-56 218.5zM174 428q0 -172 117.5 -292t292.5 -120t292 120t117 292t-117 292t-292 120q-85 0 -164 -31 t-133 -82q-61 -89 -87 -157t-26 -142z" />
<glyph unicode="7" horiz-adv-x="952" d="M41 1397v37h860v-21l-688 -1413h-41l678 1397h-809z" />
<glyph unicode="8" horiz-adv-x="1146" d="M123 395q0 143 90 254.5t236 149.5q-110 34 -177 120t-67 195q0 142 105.5 241t262.5 99t263 -99t106 -241q0 -109 -67 -195t-177 -120q146 -38 236 -149.5t90 -254.5q0 -174 -130 -294.5t-321 -120.5t-320.5 120.5t-129.5 294.5zM164 395q0 -159 117.5 -269t291.5 -110 t292 110t118 269t-118 270t-292 111t-291.5 -111t-117.5 -270zM246 1114q0 -126 96 -213.5t231 -87.5q136 0 232 87.5t96 213.5q0 127 -94 215t-234 88t-233.5 -88t-93.5 -215z" />
<glyph unicode="9" horiz-adv-x="1146" d="M113 1006q0 188 129 318t321 130q130 0 234.5 -63t160.5 -164.5t56 -218.5q0 -92 -34.5 -171.5t-96.5 -174.5l-434 -662h-52l416 625q-101 -68 -250 -68q-192 0 -321 130.5t-129 318.5zM154 1006q0 -172 117 -292t292 -120q85 0 164 31t133 82q61 89 87 157t26 142 q0 172 -117.5 291.5t-292.5 119.5t-292 -119.5t-117 -291.5z" />
<glyph unicode=":" horiz-adv-x="552" d="M236 51q0 29 21 50.5t50 21.5t50.5 -21.5t21.5 -50.5t-21.5 -50t-50.5 -21t-50 21t-21 50zM236 850q0 29 21 50.5t50 21.5t50.5 -21.5t21.5 -50.5t-21.5 -50.5t-50.5 -21.5t-50 21.5t-21 50.5z" />
<glyph unicode=";" horiz-adv-x="552" d="M166 -287l160 451h43l-160 -451h-43zM236 850q0 29 21 50.5t50 21.5t50.5 -21.5t21.5 -50.5t-21.5 -50.5t-50.5 -21.5t-50 21.5t-21 50.5z" />
<glyph unicode="&#x3c;" horiz-adv-x="1064" d="M102 522v21l820 352v-41l-750 -322l750 -321v-41z" />
<glyph unicode="=" horiz-adv-x="1064" d="M123 332v37h819v-37h-819zM123 700v37h819v-37h-819z" />
<glyph unicode="&#x3e;" horiz-adv-x="1064" d="M143 170v41l750 321l-750 322v41l820 -352v-21z" />
<glyph unicode="?" horiz-adv-x="983" d="M111 1165q24 126 128.5 207.5t252.5 81.5q167 0 278 -107.5t111 -261.5q0 -68 -24 -125t-62.5 -96t-84.5 -71.5t-92.5 -59t-85 -51.5t-62.5 -56.5t-24 -66.5q0 -67 66 -133l-31 -27q-13 13 -26.5 30.5t-31 55.5t-17.5 74q0 43 24 78.5t62 63t84.5 54t93 57.5t84.5 66.5 t62 89t24 117.5q0 139 -99 235.5t-249 96.5q-131 0 -225.5 -73.5t-116.5 -188.5zM399 51q0 29 21.5 50.5t50.5 21.5t50.5 -21.5t21.5 -50.5t-21.5 -50t-50.5 -21t-50.5 21t-21.5 50z" />
<glyph unicode="@" horiz-adv-x="2048" d="M143 512q0 184 70.5 350.5t190.5 287t285.5 192t348.5 71.5q174 0 333 -62.5t276.5 -169.5t187.5 -260t70 -325q0 -132 -38.5 -239t-120.5 -175.5t-196 -68.5q-183 0 -237 168q-38 -76 -118.5 -122t-186.5 -46q-167 0 -280.5 113.5t-113.5 285.5q0 171 113 285t279 114 q99 0 176 -41t118 -110v131h41v-498q0 -116 53.5 -179.5t155.5 -63.5q146 0 230 125t84 321q0 169 -68.5 316.5t-182.5 248t-264 158t-311 57.5q-138 0 -268 -43t-235 -123t-184.5 -186t-123 -238t-43.5 -274q0 -177 68.5 -337.5t183.5 -275.5t273 -183t331 -68 q277 0 494 168l22 -33q-107 -83 -240 -127.5t-278 -44.5q-183 0 -348.5 71.5t-285.5 192t-190.5 287t-70.5 350.5zM655 512q0 -157 101.5 -259.5t251.5 -102.5q109 0 183 51t109 133v362q-98 178 -294 178q-150 0 -250.5 -102.5t-100.5 -259.5z" />
<glyph unicode="A" horiz-adv-x="1269" d="M10 0l615 1434h20l615 -1434h-41l-211 489h-748l-209 -489h-41zM276 526h717l-358 836z" />
<glyph unicode="B" horiz-adv-x="1228" d="M184 0v1434h453q157 0 252 -78q54 -45 84.5 -109.5t30.5 -138.5q0 -100 -54.5 -181t-142.5 -118q138 -31 228.5 -142.5t90.5 -256.5q0 -95 -41 -178t-112 -142q-111 -90 -297 -90h-492zM225 37h447q192 0 299 104q53 52 83.5 122t30.5 147q0 157 -114 268 q-107 104 -299 104h-447v-745zM225 819h408q153 0 233 74q97 87 97 215t-97 215q-80 74 -233 74h-408v-578z" />
<glyph unicode="C" horiz-adv-x="1464" d="M92 717q0 205 91.5 373.5t256 266t367.5 97.5q152 0 285.5 -58.5t228.5 -162.5l-29 -27q-91 99 -217 155t-268 56q-191 0 -346.5 -94t-241.5 -254t-86 -352q0 -195 87 -355t246 -253t359 -93q156 0 288.5 69.5t227.5 184.5l31 -24q-94 -121 -239.5 -193.5t-307.5 -72.5 q-158 0 -294.5 56t-232.5 154t-151 234.5t-55 292.5z" />
<glyph unicode="D" horiz-adv-x="1443" d="M184 0v1434h389q307 0 492 -136q134 -100 210.5 -252.5t76.5 -328.5t-76.5 -329t-210.5 -253q-184 -135 -492 -135h-389zM225 37h344q297 0 473 131q126 93 197.5 237.5t71.5 311.5t-71.5 311.5t-197.5 237.5q-176 131 -473 131h-344v-1360z" />
<glyph unicode="E" horiz-adv-x="1034" d="M184 0v1434h738v-37h-697v-578h553v-37h-553v-745h717v-37h-758z" />
<glyph unicode="F" horiz-adv-x="993" d="M184 0v1434h738v-37h-697v-578h553v-37h-553v-782h-41z" />
<glyph unicode="G" horiz-adv-x="1536" d="M92 717q0 205 91.5 373.5t256 266t367.5 97.5q152 0 285.5 -58.5t228.5 -162.5l-29 -27q-91 99 -217 155t-268 56q-191 0 -346.5 -94t-241.5 -254t-86 -352q0 -195 87 -355t246 -253t359 -93q160 0 298.5 68t228.5 184v514h-551v37h592v-563q-90 -123 -240 -199.5 t-328 -76.5q-158 0 -294.5 56t-232.5 154t-151 234.5t-55 292.5z" />
<glyph unicode="H" horiz-adv-x="1495" d="M184 0v1434h41v-615h1045v615h41v-1434h-41v782h-1045v-782h-41z" />
<glyph unicode="I" horiz-adv-x="409" d="M184 0v1434h41v-1434h-41z" />
<glyph unicode="J" horiz-adv-x="864" d="M10 195l37 16q36 -87 116 -141t179 -54q79 0 147 34.5t111 94.5q59 81 59 230v1059h41v-1055q0 -166 -67 -258q-106 -141 -291 -141q-112 0 -202 59t-130 156z" />
<glyph unicode="K" horiz-adv-x="1208" d="M184 0v1434h41v-654l815 654h64l-832 -670l875 -764h-62l-860 756v-756h-41z" />
<glyph unicode="L" horiz-adv-x="1013" d="M184 0v1434h41v-1397h717v-37h-758z" />
<glyph unicode="M" horiz-adv-x="1679" d="M184 0v1434h21l635 -1053l635 1053h20v-1434h-41v1321l-604 -993h-21l-604 993v-1321h-41z" />
<glyph unicode="N" horiz-adv-x="1495" d="M184 0v1434h21l1065 -1344v1344h41v-1434h-21l-1065 1343v-1343h-41z" />
<glyph unicode="O" horiz-adv-x="1601" d="M92 717q0 206 92 375t254.5 265.5t362.5 96.5q150 0 281.5 -56.5t225 -154.5t147.5 -234.5t54 -291.5t-54 -291.5t-147.5 -234.5t-225 -154.5t-281.5 -56.5q-200 0 -362.5 96.5t-254.5 265.5t-92 375zM133 717q0 -194 85.5 -354t239 -253.5t343.5 -93.5q142 0 267 55 t212 149t137.5 223t50.5 274t-50.5 274t-137.5 223t-212 148.5t-267 54.5q-190 0 -343.5 -93t-239 -253t-85.5 -354z" />
<glyph unicode="P" horiz-adv-x="1157" d="M184 0v1434h514q181 0 281 -97q106 -101 106 -250q0 -148 -106 -249q-100 -97 -281 -97h-473v-741h-41zM225 778h469q161 0 252 84q98 95 98 225q0 131 -98 226q-91 84 -252 84h-469v-619z" />
<glyph unicode="Q" horiz-adv-x="1611" d="M92 717q0 206 92 375t254.5 265.5t362.5 96.5q150 0 281.5 -56.5t225 -154.5t147.5 -234.5t54 -291.5q0 -145 -46 -272.5t-132 -225.5l199 -219h-51l-172 190q-97 -100 -227 -155t-279 -55q-200 0 -362.5 96.5t-254.5 265.5t-92 375zM133 717q0 -194 85.5 -354 t239 -253.5t343.5 -93.5q142 0 265 53.5t214 149.5l-391 432l29 25l387 -428q163 200 163 469q0 145 -50.5 274t-137.5 223t-212 148.5t-267 54.5q-190 0 -343.5 -93t-239 -253t-85.5 -354z" />
<glyph unicode="R" horiz-adv-x="1218" d="M184 0v1434h473q158 0 248 -74q56 -45 87.5 -110.5t31.5 -141.5t-31.5 -141.5t-87.5 -110.5q-90 -74 -248 -74h-61l592 -782h-49l-592 782h-322v-782h-41zM225 819h428q147 0 230 70q100 87 100 219t-100 219q-83 70 -230 70h-428v-578z" />
<glyph unicode="S" horiz-adv-x="1075" d="M92 225l33 25q149 -234 424 -234q98 0 179.5 39.5t132 117.5t50.5 179q0 117 -62 193t-171 127q-38 17 -97 40t-102.5 40t-96 41.5t-89.5 52t-69.5 63.5t-49 84.5t-16.5 106.5q0 73 25 133.5t64.5 100.5t91 67.5t103 40t101.5 12.5q205 0 348 -143l-27 -29 q-129 135 -321 135q-44 0 -90.5 -11.5t-92.5 -37t-81.5 -61.5t-57.5 -89.5t-22 -117.5q0 -53 15 -96.5t45.5 -76t64.5 -57.5t83 -47.5t90 -38t97.5 -37t93.5 -38.5q58 -25 103 -55.5t83 -73t58 -100t20 -128.5q0 -164 -115.5 -268t-289.5 -104q-148 0 -257.5 59t-197.5 186z " />
<glyph unicode="T" horiz-adv-x="1024" d="M41 1397v37h942v-37h-451v-1397h-40v1397h-451z" />
<glyph unicode="U" horiz-adv-x="1433" d="M164 553v881h41v-885q0 -170 61 -279q65 -117 185.5 -185.5t265.5 -68.5t265 68.5t185 185.5q62 111 62 279v885h41v-881q0 -181 -68 -301q-71 -126 -200.5 -199t-284.5 -73q-156 0 -285.5 73.5t-200.5 198.5q-67 118 -67 301z" />
<glyph unicode="V" horiz-adv-x="1249" d="M31 1434h41l553 -1360l553 1360h41l-584 -1434h-21z" />
<glyph unicode="W" horiz-adv-x="1884" d="M41 1434h41l436 -1338l414 1338h20l414 -1338l436 1338h41l-467 -1434h-20l-414 1331l-414 -1331h-20z" />
<glyph unicode="X" horiz-adv-x="1171" d="M41 0l520 776l-440 658h45l420 -629l420 629h45l-441 -658l520 -776h-45l-499 745l-500 -745h-45z" />
<glyph unicode="Y" horiz-adv-x="1085" d="M41 1434h47l455 -686l454 686h47l-481 -727v-707h-41v707z" />
<glyph unicode="Z" horiz-adv-x="1167" d="M82 0v20l924 1377h-863v37h922v-21l-924 -1376h965v-37h-1024z" />
<glyph unicode="[" horiz-adv-x="829" d="M307 -410v1844h420v-37h-379v-1770h379v-37h-420z" />
<glyph unicode="\" horiz-adv-x="727" d="M10 1434h41l666 -1434h-41z" />
<glyph unicode="]" horiz-adv-x="829" d="M102 -373h379v1770h-379v37h420v-1844h-420v37z" />
<glyph unicode="^" horiz-adv-x="942" d="M102 717l359 717h20l359 -717h-41l-328 655l-328 -655h-41z" />
<glyph unicode="_" horiz-adv-x="880" d="M41 0h799v-37h-799v37z" />
<glyph unicode="`" horiz-adv-x="530" d="M143 1331h45l199 -266h-45z" />
<glyph unicode="a" d="M113 449q0 201 132 337t330 136q126 0 218.5 -53.5t146.5 -129.5v162h41v-901h-41v168q-42 -71 -141.5 -129.5t-229.5 -58.5q-200 0 -328 133t-128 336zM154 449q0 -187 115.5 -310t299.5 -123q125 0 225.5 64t145.5 160v432q-58 99 -152 156t-208 57q-185 0 -305.5 -125 t-120.5 -311z" />
<glyph unicode="b" d="M195 0v1454h41v-715q54 76 146 129.5t218 53.5q131 0 237 -62.5t166 -171t60 -239.5q0 -203 -128.5 -336t-328.5 -133q-130 0 -229 58.5t-141 129.5v-168h-41zM236 240q45 -96 145 -160t225 -64q184 0 300 123t116 310q0 186 -120.5 311t-305.5 125q-114 0 -208 -57 t-152 -156v-432z" />
<glyph unicode="c" horiz-adv-x="1095" d="M113 453q0 95 35.5 181.5t96.5 150t146.5 100.5t181.5 37q242 0 383 -185l-32 -24q-57 82 -148 127t-198 45q-176 0 -300 -125t-124 -307q0 -189 127 -313t313 -124q121 0 217 55.5t150 147.5l32 -20q-58 -102 -161.5 -160.5t-237.5 -58.5q-206 0 -343.5 134.5 t-137.5 338.5z" />
<glyph unicode="d" d="M113 449q0 201 132 337t330 136q126 0 218.5 -53.5t146.5 -129.5v715h41v-1454h-41v168q-42 -71 -141.5 -129.5t-229.5 -58.5q-200 0 -328 133t-128 336zM154 449q0 -187 115.5 -310t299.5 -123q125 0 225.5 64t145.5 160v432q-58 99 -152 156t-208 57 q-185 0 -305.5 -125t-120.5 -311z" />
<glyph unicode="e" horiz-adv-x="1077" d="M113 453q0 198 118.5 333.5t307.5 135.5q185 0 302.5 -128t123.5 -317h-811v-24q0 -188 111 -312.5t300 -124.5q204 0 332 148l29 -29q-137 -155 -361 -155q-208 0 -330 136t-122 337zM158 514h760q-12 157 -116.5 264t-262.5 107q-154 0 -257 -103t-124 -268z" />
<glyph unicode="f" horiz-adv-x="727" d="M20 864v37h267v162q0 131 14 202t61 121q82 89 222 89q39 0 82 -11l-9 -34q-40 8 -69 8q-124 0 -197 -80q-40 -45 -51.5 -111.5t-11.5 -185.5v-160h348v-37h-348v-864h-41v864h-267z" />
<glyph unicode="g" d="M113 449q0 201 132 337t330 136q126 0 218.5 -53.5t146.5 -129.5v162h41v-891q0 -116 -10.5 -200t-44.5 -142q-110 -180 -357 -180q-144 0 -251 60t-166 145l32 24q49 -79 151.5 -135.5t233.5 -56.5q112 0 194.5 43.5t127.5 122.5q49 87 49 317v160 q-42 -71 -141.5 -129.5t-229.5 -58.5q-200 0 -328 133t-128 336zM154 449q0 -187 115.5 -310t299.5 -123q125 0 225.5 64t145.5 160v432q-58 99 -152 156t-208 57q-185 0 -305.5 -125t-120.5 -311z" />
<glyph unicode="h" horiz-adv-x="1155" d="M195 0v1454h41v-731q66 91 161 145t205 54q78 0 152 -29.5t129 -87.5q98 -106 98 -293v-512h-41v512q0 171 -90 268q-45 49 -111.5 77t-136.5 28q-110 0 -204.5 -59.5t-161.5 -163.5v-662h-41z" />
<glyph unicode="i" horiz-adv-x="430" d="M154 1229q0 26 17.5 43.5t43.5 17.5t43.5 -17.5t17.5 -43.5t-17.5 -44t-43.5 -18t-43.5 18t-17.5 44zM195 0v901h41v-901h-41z" />
<glyph unicode="j" horiz-adv-x="522" d="M-41 -500l8 35q29 -10 76 -10q144 0 207 110q17 29 26 70.5t10 70t1 81.5v1050h41v-1048q0 -83 -7.5 -139t-33.5 -103q-31 -58 -93 -93.5t-147 -35.5q-50 0 -88 12zM246 1229q0 26 17.5 43.5t43.5 17.5t44 -17.5t18 -43.5t-18 -44t-44 -18t-43.5 18t-17.5 44z" />
<glyph unicode="k" horiz-adv-x="958" d="M195 0v1454h41v-956l557 403h63l-573 -416l645 -485h-62l-630 471v-471h-41z" />
<glyph unicode="l" horiz-adv-x="430" d="M195 0v1454h41v-1454h-41z" />
<glyph unicode="m" horiz-adv-x="1880" d="M195 0v901h41v-176q153 197 372 197q73 0 143 -29.5t123 -85.5q46 -49 70 -119q61 97 163.5 165.5t231.5 68.5q162 0 271 -115q96 -104 96 -295v-512h-41v512q0 176 -88 270q-44 47 -106 75t-128 28q-126 0 -226.5 -70.5t-158.5 -175.5q13 -60 13 -127v-512h-41v512 q0 176 -88 270q-44 47 -106 75t-128 28q-108 0 -203.5 -58.5t-168.5 -164.5v-662h-41z" />
<glyph unicode="n" horiz-adv-x="1155" d="M195 0v901h41v-178q66 91 161 145t205 54q78 0 152 -29.5t129 -87.5q98 -106 98 -293v-512h-41v512q0 171 -90 268q-45 49 -111.5 77t-136.5 28q-110 0 -204.5 -59.5t-161.5 -163.5v-662h-41z" />
<glyph unicode="o" horiz-adv-x="1142" d="M113 451q0 197 130.5 334t327.5 137t328 -137t131 -334t-131 -334t-328 -137t-327.5 137t-130.5 334zM154 451q0 -182 119.5 -308.5t297.5 -126.5t298 126.5t120 308.5t-120 308t-298 126t-297.5 -126t-119.5 -308z" />
<glyph unicode="p" d="M195 -492v1393h41v-162q54 76 146 129.5t218 53.5q131 0 237 -62.5t166 -171t60 -239.5q0 -203 -128.5 -336t-328.5 -133q-130 0 -229 58.5t-141 129.5v-660h-41zM236 240q45 -96 145 -160t225 -64q184 0 300 123t116 310q0 186 -120.5 311t-305.5 125q-114 0 -208 -57 t-152 -156v-432z" />
<glyph unicode="q" d="M113 449q0 201 132 337t330 136q126 0 218.5 -53.5t146.5 -129.5v162h41v-1393h-41v660q-42 -71 -141.5 -129.5t-229.5 -58.5q-200 0 -328 133t-128 336zM154 449q0 -187 115.5 -310t299.5 -123q125 0 225.5 64t145.5 160v432q-58 99 -152 156t-208 57 q-185 0 -305.5 -125t-120.5 -311z" />
<glyph unicode="r" horiz-adv-x="634" d="M195 0v901h41v-164q39 84 117 134.5t179 50.5q15 0 31 -2l-4 -37q-12 2 -24 2q-203 0 -299 -230v-655h-41z" />
<glyph unicode="s" horiz-adv-x="845" d="M113 113l28 26q69 -66 136.5 -94.5t156.5 -28.5q100 0 174 59.5t74 151.5q0 56 -29.5 97.5t-77.5 65.5t-105.5 43t-114.5 39t-105 45t-77.5 68.5t-29.5 102.5q0 106 79 170t196 64q85 0 146.5 -25t121.5 -74l-27 -28q-99 90 -241 90q-92 0 -163 -51.5t-71 -145.5 q0 -51 29.5 -88.5t77.5 -59.5t105.5 -41t114.5 -40t105 -48t77.5 -74t29.5 -110q0 -103 -82.5 -175t-206.5 -72q-188 0 -321 133z" />
<glyph unicode="t" horiz-adv-x="747" d="M20 864v37h267v266h41v-266h368v-37h-368v-622q0 -77 28 -125q27 -46 79.5 -73.5t119.5 -27.5q63 0 131 21l10 -37q-53 -20 -139 -20q-72 0 -135.5 27.5t-99.5 86.5q-35 56 -35 152v618h-267z" />
<glyph unicode="u" horiz-adv-x="1144" d="M174 389v512h41v-512q0 -176 88 -270q44 -47 106 -75t128 -28q109 0 205 58.5t167 165.5v661h41v-901h-41v178q-67 -91 -161.5 -144.5t-210.5 -53.5q-74 0 -144 29t-123 85q-96 104 -96 295z" />
<glyph unicode="v" horiz-adv-x="925" d="M41 901h43l379 -831l379 831h43l-412 -901h-20z" />
<glyph unicode="w" horiz-adv-x="1503" d="M51 901h41l334 -827l315 827h21l315 -827l334 827h41l-365 -901h-20l-315 819l-316 -819h-20z" />
<glyph unicode="x" horiz-adv-x="897" d="M51 0l369 494l-303 407h51l281 -379l280 379h51l-303 -407l369 -494h-51l-346 465l-347 -465h-51z" />
<glyph unicode="y" horiz-adv-x="925" d="M41 901h43l399 -754l357 754h45l-660 -1397h-45l281 596z" />
<glyph unicode="z" horiz-adv-x="911" d="M72 0v20l673 844h-632v37h696v-20l-674 -844h715v-37h-778z" />
<glyph unicode="{" horiz-adv-x="829" d="M184 492v40q69 0 101 48q22 36 22 116q0 79 -10 225t-10 191q0 167 67 240q76 82 260 82h31v-37h-31q-156 0 -225 -66q-32 -31 -46.5 -82.5t-14.5 -138.5q0 -54 10 -202t10 -212q0 -138 -74 -184q74 -46 74 -184q0 -64 -10 -212t-10 -202q0 -87 14.5 -138.5t46.5 -82.5 q69 -66 225 -66h31v-37h-31q-184 0 -260 82q-67 73 -67 240q0 45 10 191t10 225q0 80 -22 116q-32 48 -101 48z" />
<glyph unicode="|" horiz-adv-x="286" d="M123 -410v1844h41v-1844h-41z" />
<glyph unicode="}" horiz-adv-x="829" d="M184 -373h31q156 0 225 66q62 59 62 221q0 54 -10.5 202t-10.5 212q0 138 74 184q-74 46 -74 184q0 64 10.5 212t10.5 202q0 162 -62 221q-69 66 -225 66h-31v37h31q184 0 260 -82q68 -74 68 -240q0 -45 -10.5 -191t-10.5 -225q0 -78 23 -116q32 -48 100 -48v-40 q-68 0 -100 -48q-23 -38 -23 -116q0 -79 10.5 -225t10.5 -191q0 -166 -68 -240q-76 -82 -260 -82h-31v37z" />
<glyph unicode="~" horiz-adv-x="987" d="M102 459q23 97 78 140.5t123 43.5q44 0 86.5 -18.5t77 -45t68 -53t72.5 -45t77 -18.5q120 0 164 158l37 -11q-23 -97 -78 -140.5t-123 -43.5q-44 0 -86.5 18.5t-77 45t-68 53t-72.5 45t-77 18.5q-120 0 -164 -157z" />
<glyph unicode="&#xa1;" horiz-adv-x="430" d="M143 850q0 29 21.5 50.5t50.5 21.5t50.5 -21.5t21.5 -50.5t-21.5 -50.5t-50.5 -21.5t-50.5 21.5t-21.5 50.5zM195 -492v1024h41v-1024h-41z" />
<glyph unicode="&#xa2;" horiz-adv-x="1075" d="M113 453q0 127 59.5 234t165.5 170.5t233 64.5v215h41v-217q212 -14 344 -183l-32 -24q-57 82 -148 127t-198 45q-176 0 -300 -125t-124 -307q0 -189 127 -313t313 -124q121 0 217 55.5t150 147.5l32 -20q-57 -99 -155.5 -157t-225.5 -62v-216h-41v216q-199 8 -328.5 141 t-129.5 332z" />
<glyph unicode="&#xa3;" horiz-adv-x="952" d="M61 0v20q124 49 212.5 165t88.5 259q0 136 -65 299h-195v37h179q-27 59 -42 97t-28.5 95t-13.5 111q0 154 108 262.5t262 108.5q104 0 193 -54t135 -143l-35 -18q-42 80 -121 129t-172 49q-136 0 -232.5 -99t-96.5 -235q0 -54 14.5 -111.5t29 -93t44.5 -98.5h258v-37 h-242q61 -153 61 -299q0 -72 -20.5 -138.5t-55.5 -117t-71 -87t-76 -64.5h772v-37h-891z" />
<glyph unicode="&#xa4;" horiz-adv-x="1024" d="M82 315l147 148q-98 109 -98 256t98 256l-147 147l27 27l147 -148q110 99 256 99t256 -99l147 148l27 -27l-147 -147q98 -109 98 -256t-98 -256l147 -148l-27 -26l-147 147q-109 -98 -256 -98t-256 98l-147 -147zM172 719q0 -141 99.5 -240.5t240.5 -99.5t240.5 99.5 t99.5 240.5t-99.5 240.5t-240.5 99.5t-240.5 -99.5t-99.5 -240.5z" />
<glyph unicode="&#xa5;" horiz-adv-x="1085" d="M41 1434h47l455 -686l454 686h47l-354 -535h326v-37h-350l-103 -155v-136h453v-36h-453v-535h-41v535h-452v36h452v136l-104 155h-348v37h323z" />
<glyph unicode="&#xa6;" horiz-adv-x="368" d="M164 389h41v-799h-41v799zM164 635v799h41v-799h-41z" />
<glyph unicode="&#xa7;" horiz-adv-x="1017" d="M92 512q0 114 76 203.5t205 132.5q-111 40 -171.5 101.5t-60.5 170.5q0 81 36.5 147t93.5 105.5t122 60.5t127 21q119 0 208 -42t146 -101l-26 -29q-135 135 -326 135q-55 0 -113 -18.5t-109.5 -53.5t-84.5 -94t-33 -131q0 -30 6 -55.5t14.5 -46t25.5 -39t31.5 -31.5 t40 -26.5t43.5 -22t50 -19t51.5 -16.5t55.5 -16.5t55 -16.5q46 -14 79 -25.5t74.5 -30t70 -37.5t58.5 -46.5t48 -58.5t29.5 -72.5t11.5 -89.5q0 -114 -76.5 -203.5t-204.5 -132.5q110 -40 171 -102t61 -170q0 -81 -36.5 -147t-93.5 -105.5t-122 -60.5t-127 -21 q-119 0 -208.5 42.5t-146.5 100.5l27 29q135 -135 326 -135q55 0 113 18.5t109.5 53.5t84.5 94t33 131q0 30 -6 55.5t-14.5 46t-25.5 39t-31.5 31.5t-40 26.5t-43.5 22t-50 19t-51.5 16.5t-55.5 16.5t-55 16.5q-46 14 -79 25.5t-74.5 30t-70 37.5t-58.5 46.5t-48 58.5 t-29.5 72.5t-11.5 89.5zM133 512q0 -46 12 -85.5t28.5 -67.5t48.5 -54t58 -41.5t72 -33t74.5 -26.5t81.5 -24.5t78 -23.5q143 36 221 119.5t78 195.5q0 46 -12 85.5t-28.5 67.5t-48.5 54t-58 41.5t-72 33t-74 26.5t-81.5 24.5t-78.5 23.5q-143 -36 -221 -120.5t-78 -194.5z " />
<glyph unicode="&#xa8;" horiz-adv-x="696" d="M143 1188q0 26 18 43.5t44 17.5t43.5 -17.5t17.5 -43.5t-17.5 -44t-43.5 -18t-44 18t-18 44zM430 1188q0 26 18 43.5t44 17.5t43.5 -17.5t17.5 -43.5t-17.5 -44t-43.5 -18t-44 18t-18 44z" />
<glyph unicode="&#xa9;" horiz-adv-x="1720" d="M143 717q0 145 57 278t153 229t229 153t278 57t278 -57t229 -153t153 -229t57 -278t-57 -278t-153 -229t-229 -153t-278 -57t-278 57t-229 153t-153 229t-57 278zM180 717q0 -138 54 -264t145 -217t217 -145t264 -54t264 54t217 145t145 217t54 264t-54 264t-145 217 t-217 145t-264 54t-264 -54t-217 -145t-145 -217t-54 -264zM477 721q0 171 113 288t278 117q149 0 254 -102l-22 -27q-96 93 -232 93q-148 0 -249 -107t-101 -262q0 -153 103 -260t256 -107q139 0 245 99l25 -29q-116 -107 -270 -107q-171 0 -285.5 117t-114.5 287z" />
<glyph unicode="&#xaa;" horiz-adv-x="800" d="M102 1147q0 128 85.5 217.5t218.5 89.5q67 0 126 -26.5t95 -71.5v78h41v-574h-41v78q-79 -98 -221 -98q-133 0 -218.5 89.5t-85.5 217.5zM143 1147q0 -116 77 -193t192 -77q132 0 215 112v316q-83 112 -215 112q-115 0 -192 -77t-77 -193z" />
<glyph unicode="&#xab;" horiz-adv-x="1064" d="M184 461v20l301 359h47l-307 -369l307 -369h-47zM614 461v20l301 359h48l-308 -369l308 -369h-48z" />
<glyph unicode="&#xac;" horiz-adv-x="1116" d="M123 700v37h819v-405h-37v368h-782z" />
<glyph unicode="&#xae;" horiz-adv-x="1720" d="M143 717q0 145 57 278t153 229t229 153t278 57t278 -57t229 -153t153 -229t57 -278t-57 -278t-153 -229t-229 -153t-278 -57t-278 57t-229 153t-153 229t-57 278zM180 717q0 -138 54 -264t145 -217t217 -145t264 -54t264 54t217 145t145 217t54 264t-54 264t-145 217 t-217 145t-264 54t-264 -54t-217 -145t-145 -217t-54 -264zM612 330v784h275q112 0 162 -41q67 -55 67 -147q0 -93 -67 -148q-50 -41 -162 -41h-10l329 -407h-45l-330 407h-178v-407h-41zM653 774h230q103 0 143 37q49 46 49 115q0 68 -49 114q-40 37 -143 37h-230v-303z " />
<glyph unicode="&#xaf;" horiz-adv-x="778" d="M143 1153v37h492v-37h-492z" />
<glyph unicode="&#xb0;" horiz-adv-x="798" d="M102 1137q0 123 87 210t210 87t210 -87t87 -210t-87 -210t-210 -87t-210 87t-87 210zM143 1137q0 -106 75 -181t181 -75t181 75t75 181t-75 181t-181 75t-181 -75t-75 -181z" />
<glyph unicode="&#xb1;" horiz-adv-x="1064" d="M123 123v37h819v-37h-819zM123 563v37h391v342h37v-342h391v-37h-391v-342h-37v342h-391z" />
<glyph unicode="&#xb2;" horiz-adv-x="540" d="M31 696v23l299 330q88 97 88 194q0 72 -49 123t-121 51q-57 0 -99.5 -33t-60.5 -86l-37 15q22 62 76 101.5t121 39.5q87 0 149 -59.5t62 -151.5q0 -55 -25 -108.5t-88 -122.5l-254 -279h377v-37h-438z" />
<glyph unicode="&#xb3;" horiz-adv-x="581" d="M31 793l32 22q29 -46 79.5 -74t113.5 -28q92 0 152.5 61t60.5 152q0 88 -63 149.5t-152 61.5q-46 0 -84 -11v23l225 248h-332v37h392v-23l-215 -237h18q104 0 178 -72.5t74 -175.5q0 -106 -71.5 -178t-182.5 -72q-73 0 -131.5 31.5t-93.5 85.5z" />
<glyph unicode="&#xb4;" horiz-adv-x="530" d="M143 1065l199 266h45l-199 -266h-45z" />
<glyph unicode="&#xb5;" horiz-adv-x="1155" d="M195 -492v1393h41v-491q0 -198 104 -299q101 -95 238 -95q122 0 207.5 63.5t134.5 160.5v661h41v-901h-41v172q-55 -91 -143 -141.5t-199 -50.5q-159 0 -269 104q-50 47 -73 109v-685h-41z" />
<glyph unicode="&#xb6;" horiz-adv-x="1300" d="M61 993q0 132 70 240.5t186 161.5q79 39 226 39h655v-37h-205v-1807h-41v1807h-409v-1807h-41v963q-183 0 -312 128.5t-129 311.5zM104 993q0 -168 115.5 -285.5t282.5 -117.5v807q-167 0 -282.5 -118t-115.5 -286z" />
<glyph unicode="&#xb7;" horiz-adv-x="552" d="M205 451q0 29 21 50t50 21t50.5 -21t21.5 -50t-21.5 -50.5t-50.5 -21.5t-50 21.5t-21 50.5z" />
<glyph unicode="&#xb8;" horiz-adv-x="407" d="M143 -287l82 287h39l-82 -287h-39z" />
<glyph unicode="&#xb9;" horiz-adv-x="405" d="M61 1290v41l191 103h20v-738h-41v684z" />
<glyph unicode="&#xba;" horiz-adv-x="811" d="M102 1147q0 128 86.5 217.5t217.5 89.5t217 -89.5t86 -217.5q0 -129 -85.5 -218t-217.5 -89t-218 89t-86 218zM143 1147q0 -114 75 -192t188 -78t187.5 78t74.5 192t-74.5 192t-187.5 78t-188 -78t-75 -192z" />
<glyph unicode="&#xbb;" horiz-adv-x="1064" d="M102 102l308 369l-308 369h48l301 -359v-20l-301 -359h-48zM532 102l308 369l-308 369h48l301 -359v-20l-301 -359h-48z" />
<glyph unicode="&#xbc;" horiz-adv-x="1026" d="M61 0l838 1434h43l-838 -1434h-43zM96 1290v41l191 103h20v-738h-41v684zM463 195v20l399 522h21v-506h123v-36h-123v-195h-41v195h-379zM524 231h318v416z" />
<glyph unicode="&#xbd;" horiz-adv-x="1083" d="M61 0l838 1434h43l-838 -1434h-43zM96 1290v41l191 103h20v-738h-41v684zM573 0v23l299 329q89 98 89 195q0 72 -49 123t-121 51q-57 0 -99.5 -33t-60.5 -86l-37 14q22 62 76 102t121 40q87 0 148.5 -59.5t61.5 -151.5q0 -56 -24.5 -109.5t-87.5 -122.5l-254 -278h377 v-37h-439z" />
<glyph unicode="&#xbe;" horiz-adv-x="1136" d="M31 793l32 22q29 -46 79.5 -74t113.5 -28q92 0 152.5 61t60.5 152q0 88 -63 149.5t-152 61.5q-46 0 -84 -11v23l225 248h-332v37h392v-23l-215 -237h18q104 0 178 -72.5t74 -175.5q0 -106 -71.5 -178t-182.5 -72q-73 0 -131.5 31.5t-93.5 85.5zM172 0l838 1434h43 l-838 -1434h-43zM573 195v20l400 522h20v-506h123v-36h-123v-195h-41v195h-379zM635 231h317v416z" />
<glyph unicode="&#xbf;" horiz-adv-x="983" d="M123 -143q0 68 24 125t62 96t84.5 71.5t93 59t84.5 51.5t62 56.5t24 66.5q0 68 -65 133l30 27q76 -76 76 -160q0 -43 -24 -78.5t-62 -63t-84.5 -54t-93 -57.5t-84.5 -66.5t-62 -89t-24 -117.5q0 -139 99 -235.5t249 -96.5q131 0 225.5 73.5t116.5 188.5l39 -10 q-24 -126 -128.5 -207.5t-252.5 -81.5q-167 0 -278 107.5t-111 261.5zM461 891q0 29 21 50.5t50 21.5t50.5 -21.5t21.5 -50.5t-21.5 -50.5t-50.5 -21.5t-50 21.5t-21 50.5z" />
<glyph unicode="&#xc0;" horiz-adv-x="1269" d="M10 0l615 1434h20l615 -1434h-41l-211 489h-748l-209 -489h-41zM276 526h717l-358 836zM399 1782h45l199 -266h-45z" />
<glyph unicode="&#xc1;" horiz-adv-x="1269" d="M10 0l615 1434h20l615 -1434h-41l-211 489h-748l-209 -489h-41zM276 526h717l-358 836zM625 1516l198 266h45l-198 -266h-45z" />
<glyph unicode="&#xc2;" horiz-adv-x="1269" d="M10 0l615 1434h20l615 -1434h-41l-211 489h-748l-209 -489h-41zM276 526h717l-358 836zM395 1516l209 266h64l209 -266h-46l-196 247l-195 -247h-45z" />
<glyph unicode="&#xc3;" horiz-adv-x="1269" d="M10 0l615 1434h20l615 -1434h-41l-211 489h-748l-209 -489h-41zM276 526h717l-358 836zM348 1573q9 71 44.5 109t92.5 38q37 0 80 -19t75.5 -41.5t72 -41.5t71.5 -19q47 0 70 34.5t29 82.5l39 -6q-9 -70 -45 -108.5t-93 -38.5q-47 0 -101.5 30t-106 60t-91.5 30 q-84 0 -98 -116z" />
<glyph unicode="&#xc4;" horiz-adv-x="1269" d="M10 0l615 1434h20l615 -1434h-41l-211 489h-748l-209 -489h-41zM276 526h717l-358 836zM430 1638q0 26 18 44t44 18t43.5 -18t17.5 -44t-17.5 -43.5t-43.5 -17.5t-44 17.5t-18 43.5zM717 1638q0 26 17.5 44t43.5 18t44 -18t18 -44t-18 -43.5t-44 -17.5t-43.5 17.5 t-17.5 43.5z" />
<glyph unicode="&#xc5;" horiz-adv-x="1269" d="M10 0l615 1434h20l615 -1434h-41l-211 489h-748l-209 -489h-41zM276 526h717l-358 836zM471 1679q0 67 48.5 115.5t115.5 48.5t115.5 -48.5t48.5 -115.5t-48 -115t-116 -48t-116 48t-48 115zM508 1679q0 -53 37 -90t90 -37t90 37t37 90t-37 90t-90 37t-90 -37t-37 -90z " />
<glyph unicode="&#xc6;" horiz-adv-x="1730" d="M-41 0l895 1434h764v-37h-696v-578h553v-37h-553v-745h716v-37h-757v489h-574l-305 -489h-43zM332 526h549v877z" />
<glyph unicode="&#xc7;" horiz-adv-x="1464" d="M92 717q0 205 91.5 373.5t256 266t367.5 97.5q152 0 285.5 -58.5t228.5 -162.5l-29 -27q-91 99 -217 155t-268 56q-191 0 -346.5 -94t-241.5 -254t-86 -352q0 -195 87 -355t246 -253t359 -93q156 0 288.5 69.5t227.5 184.5l31 -24q-94 -121 -238.5 -193t-306.5 -73 l-75 -267h-39l75 269q-201 8 -360 105t-247.5 262t-88.5 368z" />
<glyph unicode="&#xc8;" horiz-adv-x="1034" d="M184 0v1434h738v-37h-697v-578h553v-37h-553v-745h717v-37h-758zM365 1782h45l198 -266h-45z" />
<glyph unicode="&#xc9;" horiz-adv-x="1034" d="M184 0v1434h738v-37h-697v-578h553v-37h-553v-745h717v-37h-758zM514 1516l199 266h45l-199 -266h-45z" />
<glyph unicode="&#xca;" horiz-adv-x="1034" d="M184 0v1434h738v-37h-697v-578h553v-37h-553v-745h717v-37h-758zM303 1516l209 266h63l209 -266h-45l-196 247l-195 -247h-45z" />
<glyph unicode="&#xcb;" horiz-adv-x="1034" d="M184 0v1434h738v-37h-697v-578h553v-37h-553v-745h717v-37h-758zM358 1638q0 26 18 44t44 18t43.5 -18t17.5 -44t-17.5 -43.5t-43.5 -17.5t-44 17.5t-18 43.5zM645 1638q0 26 18 44t44 18t43.5 -18t17.5 -44t-17.5 -43.5t-43.5 -17.5t-44 17.5t-18 43.5z" />
<glyph unicode="&#xcc;" horiz-adv-x="409" d="M-20 1782h45l198 -266h-45zM178 0v1434h41v-1434h-41z" />
<glyph unicode="&#xcd;" horiz-adv-x="409" d="M184 1516l199 266h45l-199 -266h-45zM190 0v1434h41v-1434h-41z" />
<glyph unicode="&#xce;" horiz-adv-x="409" d="M-37 1516l209 266h64l208 -266h-45l-196 247l-195 -247h-45zM182 0v1434h41v-1434h-41z" />
<glyph unicode="&#xcf;" horiz-adv-x="409" d="M0 1638q0 26 17.5 44t43.5 18t44 -18t18 -44t-18 -43.5t-44 -17.5t-43.5 17.5t-17.5 43.5zM184 0v1434h41v-1434h-41zM287 1638q0 26 17.5 44t43.5 18t44 -18t18 -44t-18 -43.5t-44 -17.5t-43.5 17.5t-17.5 43.5z" />
<glyph unicode="&#xd0;" horiz-adv-x="1443" d="M-20 782v37h204v615h389q307 0 492 -136q134 -100 210.5 -252.5t76.5 -328.5t-76.5 -329t-210.5 -253q-184 -135 -492 -135h-389v782h-204zM225 37h344q297 0 473 131q126 93 197.5 237.5t71.5 311.5t-71.5 311.5t-197.5 237.5q-176 131 -473 131h-344v-578h410v-37h-410 v-745z" />
<glyph unicode="&#xd1;" horiz-adv-x="1495" d="M184 0v1434h21l1065 -1344v1344h41v-1434h-21l-1065 1343v-1343h-41zM461 1573q9 71 44.5 109t92.5 38q37 0 80 -19t75.5 -41.5t72 -41.5t71.5 -19q84 0 98 117l39 -6q-9 -71 -44.5 -109t-92.5 -38q-47 0 -101.5 30t-106 60t-91.5 30q-84 0 -98 -116z" />
<glyph unicode="&#xd2;" horiz-adv-x="1601" d="M92 717q0 206 92 375t254.5 265.5t362.5 96.5q150 0 281.5 -56.5t225 -154.5t147.5 -234.5t54 -291.5t-54 -291.5t-147.5 -234.5t-225 -154.5t-281.5 -56.5q-200 0 -362.5 96.5t-254.5 265.5t-92 375zM133 717q0 -194 85.5 -354t239 -253.5t343.5 -93.5q142 0 267 55 t212 149t137.5 223t50.5 274t-50.5 274t-137.5 223t-212 148.5t-267 54.5q-190 0 -343.5 -93t-239 -253t-85.5 -354zM602 1782h45l199 -266h-45z" />
<glyph unicode="&#xd3;" horiz-adv-x="1601" d="M92 717q0 206 92 375t254.5 265.5t362.5 96.5q150 0 281.5 -56.5t225 -154.5t147.5 -234.5t54 -291.5t-54 -291.5t-147.5 -234.5t-225 -154.5t-281.5 -56.5q-200 0 -362.5 96.5t-254.5 265.5t-92 375zM133 717q0 -194 85.5 -354t239 -253.5t343.5 -93.5q142 0 267 55 t212 149t137.5 223t50.5 274t-50.5 274t-137.5 223t-212 148.5t-267 54.5q-190 0 -343.5 -93t-239 -253t-85.5 -354zM754 1516l198 266h45l-198 -266h-45z" />
<glyph unicode="&#xd4;" horiz-adv-x="1601" d="M92 717q0 206 92 375t254.5 265.5t362.5 96.5q150 0 281.5 -56.5t225 -154.5t147.5 -234.5t54 -291.5t-54 -291.5t-147.5 -234.5t-225 -154.5t-281.5 -56.5q-200 0 -362.5 96.5t-254.5 265.5t-92 375zM133 717q0 -194 85.5 -354t239 -253.5t343.5 -93.5q142 0 267 55 t212 149t137.5 223t50.5 274t-50.5 274t-137.5 223t-212 148.5t-267 54.5q-190 0 -343.5 -93t-239 -253t-85.5 -354zM561 1516l209 266h64l208 -266h-45l-196 247l-195 -247h-45z" />
<glyph unicode="&#xd5;" horiz-adv-x="1601" d="M92 717q0 206 92 375t254.5 265.5t362.5 96.5q150 0 281.5 -56.5t225 -154.5t147.5 -234.5t54 -291.5t-54 -291.5t-147.5 -234.5t-225 -154.5t-281.5 -56.5q-200 0 -362.5 96.5t-254.5 265.5t-92 375zM133 717q0 -194 85.5 -354t239 -253.5t343.5 -93.5q142 0 267 55 t212 149t137.5 223t50.5 274t-50.5 274t-137.5 223t-212 148.5t-267 54.5q-190 0 -343.5 -93t-239 -253t-85.5 -354zM514 1573q9 71 44.5 109t92.5 38q37 0 80 -19t75.5 -41.5t72 -41.5t71.5 -19q47 0 70 34.5t29 82.5l38 -6q-9 -71 -44.5 -109t-92.5 -38q-47 0 -101.5 30 t-106 60t-91.5 30q-84 0 -98 -116z" />
<glyph unicode="&#xd6;" horiz-adv-x="1601" d="M92 717q0 206 92 375t254.5 265.5t362.5 96.5q150 0 281.5 -56.5t225 -154.5t147.5 -234.5t54 -291.5t-54 -291.5t-147.5 -234.5t-225 -154.5t-281.5 -56.5q-200 0 -362.5 96.5t-254.5 265.5t-92 375zM133 717q0 -194 85.5 -354t239 -253.5t343.5 -93.5q142 0 267 55 t212 149t137.5 223t50.5 274t-50.5 274t-137.5 223t-212 148.5t-267 54.5q-190 0 -343.5 -93t-239 -253t-85.5 -354zM596 1638q0 26 17.5 44t43.5 18t44 -18t18 -44t-18 -43.5t-44 -17.5t-43.5 17.5t-17.5 43.5zM883 1638q0 26 17.5 44t43.5 18t44 -18t18 -44t-18 -43.5 t-44 -17.5t-43.5 17.5t-17.5 43.5z" />
<glyph unicode="&#xd7;" horiz-adv-x="958" d="M133 213l320 319l-320 320l27 27l319 -320l320 320l26 -27l-319 -320l319 -319l-26 -27l-320 320l-319 -320z" />
<glyph unicode="&#xd8;" horiz-adv-x="1601" d="M92 717q0 206 92 375t254.5 265.5t362.5 96.5q225 0 405 -125l88 125h45l-104 -147q129 -101 201.5 -254.5t72.5 -335.5q0 -155 -54 -291.5t-147.5 -234.5t-225 -154.5t-281.5 -56.5q-231 0 -406 124l-88 -124h-45l103 147q-128 101 -200.5 254.5t-72.5 335.5zM133 717 q0 -170 67 -316.5t187 -242.5l797 1138q-169 121 -383 121q-190 0 -343.5 -93t-239 -253t-85.5 -354zM418 135q166 -119 383 -119q142 0 267 55t212 149t137.5 223t50.5 274q0 170 -67.5 315.5t-188.5 241.5z" />
<glyph unicode="&#xd9;" horiz-adv-x="1433" d="M164 553v881h41v-885q0 -170 61 -279q65 -117 185.5 -185.5t265.5 -68.5t265 68.5t185 185.5q62 111 62 279v885h41v-881q0 -181 -68 -301q-71 -126 -200.5 -199t-284.5 -73q-156 0 -285.5 73.5t-200.5 198.5q-67 118 -67 301zM518 1782h45l199 -266h-45z" />
<glyph unicode="&#xda;" horiz-adv-x="1433" d="M164 553v881h41v-885q0 -170 61 -279q65 -117 185.5 -185.5t265.5 -68.5t265 68.5t185 185.5q62 111 62 279v885h41v-881q0 -181 -68 -301q-71 -126 -200.5 -199t-284.5 -73q-156 0 -285.5 73.5t-200.5 198.5q-67 118 -67 301zM670 1516l198 266h45l-198 -266h-45z" />
<glyph unicode="&#xdb;" horiz-adv-x="1433" d="M164 553v881h41v-885q0 -170 61 -279q65 -117 185.5 -185.5t265.5 -68.5t265 68.5t185 185.5q62 111 62 279v885h41v-881q0 -181 -68 -301q-71 -126 -200.5 -199t-284.5 -73q-156 0 -285.5 73.5t-200.5 198.5q-67 118 -67 301zM477 1516l209 266h64l208 -266h-45 l-196 247l-195 -247h-45z" />
<glyph unicode="&#xdc;" horiz-adv-x="1433" d="M164 553v881h41v-885q0 -170 61 -279q65 -117 185.5 -185.5t265.5 -68.5t265 68.5t185 185.5q62 111 62 279v885h41v-881q0 -181 -68 -301q-71 -126 -200.5 -199t-284.5 -73q-156 0 -285.5 73.5t-200.5 198.5q-67 118 -67 301zM512 1638q0 26 17.5 44t43.5 18t44 -18 t18 -44t-18 -43.5t-44 -17.5t-43.5 17.5t-17.5 43.5zM799 1638q0 26 17.5 44t43.5 18t44 -18t18 -44t-18 -43.5t-44 -17.5t-43.5 17.5t-17.5 43.5z" />
<glyph unicode="&#xdd;" horiz-adv-x="1085" d="M41 1434h47l455 -686l454 686h47l-481 -727v-707h-41v707zM494 1516l198 266h45l-198 -266h-45z" />
<glyph unicode="&#xde;" horiz-adv-x="1146" d="M184 0v1434h41v-371h473q182 0 281 -96q106 -101 106 -250t-106 -250q-99 -96 -281 -96h-473v-371h-41zM225 408h469q161 0 252 84q98 95 98 225t-98 225q-91 84 -252 84h-469v-618z" />
<glyph unicode="&#xdf;" horiz-adv-x="1167" d="M195 0v1116q0 168 81 252q48 50 118.5 78.5t152.5 28.5q153 0 253.5 -93.5t100.5 -228.5q0 -96 -54.5 -173t-144.5 -114q154 -31 253.5 -155t99.5 -285q0 -187 -127 -316.5t-318 -129.5q-131 0 -231 63l20 35q85 -62 211 -62q174 0 289 120t115 292q0 171 -119 291.5 t-293 120.5h-90v37h35q139 0 226 76t87 196q0 122 -88 205.5t-225 83.5q-149 0 -238 -92q-73 -76 -73 -230v-1116h-41z" />
<glyph unicode="&#xe0;" d="M113 449q0 201 132 337t330 136q126 0 218.5 -53.5t146.5 -129.5v162h41v-901h-41v168q-42 -71 -141.5 -129.5t-229.5 -58.5q-200 0 -328 133t-128 336zM154 449q0 -187 115.5 -310t299.5 -123q125 0 225.5 64t145.5 160v432q-58 99 -152 156t-208 57q-185 0 -305.5 -125 t-120.5 -311zM434 1331h45l199 -266h-45z" />
<glyph unicode="&#xe1;" d="M113 449q0 201 132 337t330 136q126 0 218.5 -53.5t146.5 -129.5v162h41v-901h-41v168q-42 -71 -141.5 -129.5t-229.5 -58.5q-200 0 -328 133t-128 336zM154 449q0 -187 115.5 -310t299.5 -123q125 0 225.5 64t145.5 160v432q-58 99 -152 156t-208 57q-185 0 -305.5 -125 t-120.5 -311zM561 1065l199 266h45l-199 -266h-45z" />
<glyph unicode="&#xe2;" d="M113 449q0 201 132 337t330 136q126 0 218.5 -53.5t146.5 -129.5v162h41v-901h-41v168q-42 -71 -141.5 -129.5t-229.5 -58.5q-200 0 -328 133t-128 336zM154 449q0 -187 115.5 -310t299.5 -123q125 0 225.5 64t145.5 160v432q-58 99 -152 156t-208 57q-185 0 -305.5 -125 t-120.5 -311zM369 1065l209 266h63l209 -266h-45l-197 248l-194 -248h-45z" />
<glyph unicode="&#xe3;" d="M113 449q0 201 132 337t330 136q126 0 218.5 -53.5t146.5 -129.5v162h41v-901h-41v168q-42 -71 -141.5 -129.5t-229.5 -58.5q-200 0 -328 133t-128 336zM154 449q0 -187 115.5 -310t299.5 -123q125 0 225.5 64t145.5 160v432q-58 99 -152 156t-208 57q-185 0 -305.5 -125 t-120.5 -311zM322 1122q9 71 44.5 109.5t92.5 38.5q37 0 80 -19t75.5 -41.5t72 -41.5t71.5 -19q84 0 98 117l39 -6q-9 -71 -44.5 -109.5t-92.5 -38.5q-37 0 -80 19t-75.5 41.5t-72 41.5t-71.5 19q-47 0 -70 -34.5t-29 -82.5z" />
<glyph unicode="&#xe4;" d="M113 449q0 201 132 337t330 136q126 0 218.5 -53.5t146.5 -129.5v162h41v-901h-41v168q-42 -71 -141.5 -129.5t-229.5 -58.5q-200 0 -328 133t-128 336zM154 449q0 -187 115.5 -310t299.5 -123q125 0 225.5 64t145.5 160v432q-58 99 -152 156t-208 57q-185 0 -305.5 -125 t-120.5 -311zM403 1188q0 26 18 43.5t44 17.5t43.5 -17.5t17.5 -43.5t-17.5 -44t-43.5 -18t-44 18t-18 44zM690 1188q0 26 18 43.5t44 17.5t43.5 -17.5t17.5 -43.5t-17.5 -44t-43.5 -18t-44 18t-18 44z" />
<glyph unicode="&#xe5;" d="M113 449q0 201 132 337t330 136q126 0 218.5 -53.5t146.5 -129.5v162h41v-901h-41v168q-42 -71 -141.5 -129.5t-229.5 -58.5q-200 0 -328 133t-128 336zM154 449q0 -187 115.5 -310t299.5 -123q125 0 225.5 64t145.5 160v432q-58 99 -152 156t-208 57q-185 0 -305.5 -125 t-120.5 -311zM444 1229q0 67 48 115.5t116 48.5t116 -48.5t48 -115.5t-48 -115.5t-116 -48.5t-116 48.5t-48 115.5zM481 1229q0 -53 37.5 -90t89.5 -37t89.5 37t37.5 90t-37.5 90t-89.5 37t-89.5 -37t-37.5 -90z" />
<glyph unicode="&#xe6;" horiz-adv-x="1904" d="M113 449q0 201 132 337t330 136q126 0 218.5 -53.5t146.5 -129.5v162h41v-244q49 121 150 193t235 72q185 0 302.5 -128t123.5 -317h-811v-43q5 -181 116 -299.5t296 -118.5q203 0 331 148l29 -29q-137 -155 -360 -155q-150 0 -256.5 72t-155.5 194v-246h-41v168 q-42 -71 -141.5 -129.5t-229.5 -58.5q-200 0 -328 133t-128 336zM154 449q0 -187 115.5 -310t299.5 -123q125 0 225.5 64t145.5 160v432q-58 99 -152 156t-208 57q-185 0 -305.5 -125t-120.5 -311zM985 514h760q-12 157 -116.5 264t-262.5 107q-154 0 -257 -103t-124 -268z " />
<glyph unicode="&#xe7;" horiz-adv-x="1095" d="M113 453q0 95 35.5 181.5t96.5 150t146.5 100.5t181.5 37q242 0 383 -185l-32 -24q-57 82 -148 127t-198 45q-176 0 -300 -125t-124 -307q0 -189 127 -313t313 -124q121 0 217 55.5t150 147.5l32 -20q-58 -101 -161 -159.5t-236 -59.5l-76 -267h-39l76 269 q-193 12 -318.5 144.5t-125.5 326.5z" />
<glyph unicode="&#xe8;" horiz-adv-x="1077" d="M113 453q0 198 118.5 333.5t307.5 135.5q185 0 302.5 -128t123.5 -317h-811v-24q0 -188 111 -312.5t300 -124.5q204 0 332 148l29 -29q-137 -155 -361 -155q-208 0 -330 136t-122 337zM158 514h760q-12 157 -116.5 264t-262.5 107q-154 0 -257 -103t-124 -268zM354 1331 h45l199 -266h-45z" />
<glyph unicode="&#xe9;" horiz-adv-x="1077" d="M113 453q0 198 118.5 333.5t307.5 135.5q185 0 302.5 -128t123.5 -317h-811v-24q0 -188 111 -312.5t300 -124.5q204 0 332 148l29 -29q-137 -155 -361 -155q-208 0 -330 136t-122 337zM158 514h760q-12 157 -116.5 264t-262.5 107q-154 0 -257 -103t-124 -268zM485 1065 l199 266h45l-199 -266h-45z" />
<glyph unicode="&#xea;" horiz-adv-x="1077" d="M113 453q0 198 118.5 333.5t307.5 135.5q185 0 302.5 -128t123.5 -317h-811v-24q0 -188 111 -312.5t300 -124.5q204 0 332 148l29 -29q-137 -155 -361 -155q-208 0 -330 136t-122 337zM158 514h760q-12 157 -116.5 264t-262.5 107q-154 0 -257 -103t-124 -268zM313 1065 l209 266h64l209 -266h-45l-197 248l-195 -248h-45z" />
<glyph unicode="&#xeb;" horiz-adv-x="1077" d="M113 453q0 198 118.5 333.5t307.5 135.5q185 0 302.5 -128t123.5 -317h-811v-24q0 -188 111 -312.5t300 -124.5q204 0 332 148l29 -29q-137 -155 -361 -155q-208 0 -330 136t-122 337zM158 514h760q-12 157 -116.5 264t-262.5 107q-154 0 -257 -103t-124 -268zM328 1188 q0 26 17.5 43.5t43.5 17.5t44 -17.5t18 -43.5t-18 -44t-44 -18t-43.5 18t-17.5 44zM614 1188q0 26 18 43.5t44 17.5t43.5 -17.5t17.5 -43.5t-17.5 -44t-43.5 -18t-44 18t-18 44z" />
<glyph unicode="&#xec;" horiz-adv-x="430" d="M-10 1331h45l198 -266h-45zM195 0v901h41v-901h-41z" />
<glyph unicode="&#xed;" horiz-adv-x="430" d="M195 0v901h41v-901h-41zM195 1065l198 266h45l-198 -266h-45z" />
<glyph unicode="&#xee;" horiz-adv-x="430" d="M-25 1065l209 266h64l209 -266h-45l-197 248l-195 -248h-45zM195 0v901h41v-901h-41z" />
<glyph unicode="&#xef;" horiz-adv-x="430" d="M10 1188q0 26 18 43.5t44 17.5t43.5 -17.5t17.5 -43.5t-17.5 -44t-43.5 -18t-44 18t-18 44zM195 0v901h41v-901h-41zM297 1188q0 26 17.5 43.5t43.5 17.5t44 -17.5t18 -43.5t-18 -44t-44 -18t-43.5 18t-17.5 44z" />
<glyph unicode="&#xf0;" horiz-adv-x="1142" d="M113 451q0 197 130.5 334t327.5 137q125 0 222 -54l-271 396l-227 -131l-19 30l228 131l-109 160h51l95 -139l204 119l19 -31l-205 -117l371 -545q100 -147 100 -290q0 -197 -131 -334t-328 -137t-327.5 137t-130.5 334zM154 451q0 -182 119.5 -308.5t297.5 -126.5 t298 126.5t120 308.5q0 129 -92 266l-45 63q-108 105 -281 105q-178 0 -297.5 -126t-119.5 -308z" />
<glyph unicode="&#xf1;" horiz-adv-x="1155" d="M195 0v901h41v-178q66 91 161 145t205 54q78 0 152 -29.5t129 -87.5q98 -106 98 -293v-512h-41v512q0 171 -90 268q-45 49 -111.5 77t-136.5 28q-110 0 -204.5 -59.5t-161.5 -163.5v-662h-41zM317 1122q9 71 45 109.5t93 38.5q37 0 80 -19t75.5 -41.5t72 -41.5t71.5 -19 q84 0 98 117l39 -6q-9 -71 -44.5 -109.5t-92.5 -38.5q-37 0 -80 19t-75.5 41.5t-72 41.5t-71.5 19q-47 0 -70 -34.5t-29 -82.5z" />
<glyph unicode="&#xf2;" horiz-adv-x="1142" d="M113 451q0 197 130.5 334t327.5 137t328 -137t131 -334t-131 -334t-328 -137t-327.5 137t-130.5 334zM154 451q0 -182 119.5 -308.5t297.5 -126.5t298 126.5t120 308.5t-120 308t-298 126t-297.5 -126t-119.5 -308zM369 1331h45l198 -266h-45z" />
<glyph unicode="&#xf3;" horiz-adv-x="1142" d="M113 451q0 197 130.5 334t327.5 137t328 -137t131 -334t-131 -334t-328 -137t-327.5 137t-130.5 334zM154 451q0 -182 119.5 -308.5t297.5 -126.5t298 126.5t120 308.5t-120 308t-298 126t-297.5 -126t-119.5 -308zM520 1065l199 266h45l-199 -266h-45z" />
<glyph unicode="&#xf4;" horiz-adv-x="1142" d="M113 451q0 197 130.5 334t327.5 137t328 -137t131 -334t-131 -334t-328 -137t-327.5 137t-130.5 334zM154 451q0 -182 119.5 -308.5t297.5 -126.5t298 126.5t120 308.5t-120 308t-298 126t-297.5 -126t-119.5 -308zM328 1065l209 266h63l209 -266h-45l-197 248l-194 -248 h-45z" />
<glyph unicode="&#xf5;" horiz-adv-x="1142" d="M113 451q0 197 130.5 334t327.5 137t328 -137t131 -334t-131 -334t-328 -137t-327.5 137t-130.5 334zM154 451q0 -182 119.5 -308.5t297.5 -126.5t298 126.5t120 308.5t-120 308t-298 126t-297.5 -126t-119.5 -308zM281 1122q9 71 44.5 109.5t92.5 38.5q37 0 80 -19 t75.5 -41.5t72 -41.5t71.5 -19q84 0 98 117l39 -6q-9 -71 -44.5 -109.5t-92.5 -38.5q-37 0 -80 19t-75.5 41.5t-72 41.5t-71.5 19q-47 0 -70 -34.5t-29 -82.5z" />
<glyph unicode="&#xf6;" horiz-adv-x="1142" d="M113 451q0 197 130.5 334t327.5 137t328 -137t131 -334t-131 -334t-328 -137t-327.5 137t-130.5 334zM154 451q0 -182 119.5 -308.5t297.5 -126.5t298 126.5t120 308.5t-120 308t-298 126t-297.5 -126t-119.5 -308zM362 1188q0 26 18 43.5t44 17.5t43.5 -17.5t17.5 -43.5 t-17.5 -44t-43.5 -18t-44 18t-18 44zM649 1188q0 26 18 43.5t44 17.5t43.5 -17.5t17.5 -43.5t-17.5 -44t-43.5 -18t-44 18t-18 44z" />
<glyph unicode="&#xf7;" horiz-adv-x="1064" d="M123 514v37h819v-37h-819zM461 174q0 29 21 50.5t50 21.5t50.5 -21.5t21.5 -50.5t-21.5 -50.5t-50.5 -21.5t-50 21.5t-21 50.5zM461 891q0 29 21 50.5t50 21.5t50.5 -21.5t21.5 -50.5t-21.5 -50.5t-50.5 -21.5t-50 21.5t-21 50.5z" />
<glyph unicode="&#xf8;" horiz-adv-x="1142" d="M113 451q0 197 130.5 334t327.5 137q139 0 252 -76l54 76h45l-68 -97q83 -65 129.5 -163t46.5 -211q0 -197 -131 -334t-328 -137q-142 0 -254 73l-51 -73h-45l66 96q-82 65 -128 162.5t-46 212.5zM154 451q0 -103 41 -192t114 -150l494 706q-107 70 -232 70 q-178 0 -297.5 -126t-119.5 -308zM340 86q103 -70 231 -70q178 0 298 126.5t120 308.5q0 102 -42 191.5t-116 150.5z" />
<glyph unicode="&#xf9;" horiz-adv-x="1144" d="M174 389v512h41v-512q0 -176 88 -270q44 -47 106 -75t128 -28q109 0 205 58.5t167 165.5v661h41v-901h-41v178q-67 -91 -161.5 -144.5t-210.5 -53.5q-74 0 -144 29t-123 85q-96 104 -96 295zM393 1331h45l199 -266h-45z" />
<glyph unicode="&#xfa;" horiz-adv-x="1144" d="M174 389v512h41v-512q0 -176 88 -270q44 -47 106 -75t128 -28q109 0 205 58.5t167 165.5v661h41v-901h-41v178q-67 -91 -161.5 -144.5t-210.5 -53.5q-74 0 -144 29t-123 85q-96 104 -96 295zM502 1065l198 266h45l-198 -266h-45z" />
<glyph unicode="&#xfb;" horiz-adv-x="1144" d="M174 389v512h41v-512q0 -176 88 -270q44 -47 106 -75t128 -28q109 0 205 58.5t167 165.5v661h41v-901h-41v178q-67 -91 -161.5 -144.5t-210.5 -53.5q-74 0 -144 29t-123 85q-96 104 -96 295zM330 1065l209 266h63l209 -266h-45l-197 248l-194 -248h-45z" />
<glyph unicode="&#xfc;" horiz-adv-x="1144" d="M174 389v512h41v-512q0 -176 88 -270q44 -47 106 -75t128 -28q109 0 205 58.5t167 165.5v661h41v-901h-41v178q-67 -91 -161.5 -144.5t-210.5 -53.5q-74 0 -144 29t-123 85q-96 104 -96 295zM367 1188q0 26 17.5 43.5t43.5 17.5t43.5 -17.5t17.5 -43.5t-17.5 -44 t-43.5 -18t-43.5 18t-17.5 44zM653 1188q0 26 18 43.5t44 17.5t43.5 -17.5t17.5 -43.5t-17.5 -44t-43.5 -18t-44 18t-18 44z" />
<glyph unicode="&#xfd;" horiz-adv-x="925" d="M41 901h43l399 -754l357 754h45l-660 -1397h-45l281 596zM408 1065l198 266h45l-198 -266h-45z" />
<glyph unicode="&#xfe;" d="M195 -492v1946h41v-715q54 76 146 129.5t218 53.5q131 0 237 -62.5t166 -171t60 -239.5q0 -203 -128.5 -336t-328.5 -133q-130 0 -229 58.5t-141 129.5v-660h-41zM236 240q45 -96 145 -160t225 -64q184 0 300 123t116 310q0 186 -120.5 311t-305.5 125q-114 0 -208 -57 t-152 -156v-432z" />
<glyph unicode="&#xff;" horiz-adv-x="925" d="M41 901h43l399 -754l357 754h45l-660 -1397h-45l281 596zM250 1188q0 26 17.5 43.5t43.5 17.5t44 -17.5t18 -43.5t-18 -44t-44 -18t-43.5 18t-17.5 44zM537 1188q0 26 17.5 43.5t43.5 17.5t43.5 -17.5t17.5 -43.5t-17.5 -44t-43.5 -18t-43.5 18t-17.5 44z" />
<glyph unicode="&#x152;" horiz-adv-x="2318" d="M92 717q0 206 92 375t254.5 265.5t362.5 96.5q235 0 414.5 -132t252.5 -349v461h738v-37h-697v-578h553v-37h-553v-745h717v-37h-758v461q-73 -218 -252.5 -349.5t-414.5 -131.5q-200 0 -362.5 96.5t-254.5 265.5t-92 375zM133 717q0 -194 85.5 -354t239 -253.5 t343.5 -93.5q142 0 267 55t212 149t137.5 223t50.5 274t-50.5 274t-137.5 223t-212 148.5t-267 54.5q-190 0 -343.5 -93t-239 -253t-85.5 -354z" />
<glyph unicode="&#x153;" horiz-adv-x="1953" d="M113 451q0 197 130.5 334t327.5 137q158 0 276.5 -92t160.5 -238q38 147 146 238.5t261 91.5q185 0 302.5 -128t123.5 -317h-811v-24q0 -188 111.5 -312.5t300.5 -124.5q204 0 332 148l28 -29q-137 -155 -360 -155q-168 0 -282 90.5t-152 238.5q-42 -146 -160.5 -237.5 t-276.5 -91.5q-197 0 -327.5 137t-130.5 334zM154 451q0 -182 119.5 -308.5t297.5 -126.5t298 126.5t120 308.5t-120 308t-298 126t-297.5 -126t-119.5 -308zM1034 514h760q-12 157 -116.5 264t-262.5 107q-154 0 -257 -103t-124 -268z" />
<glyph unicode="&#x178;" horiz-adv-x="1085" d="M41 1434h47l455 -686l454 686h47l-481 -727v-707h-41v707zM338 1638q0 26 17.5 44t43.5 18t44 -18t18 -44t-18 -43.5t-44 -17.5t-43.5 17.5t-17.5 43.5zM625 1638q0 26 17.5 44t43.5 18t44 -18t18 -44t-18 -43.5t-44 -17.5t-43.5 17.5t-17.5 43.5z" />
<glyph unicode="&#x2c6;" horiz-adv-x="768" d="M143 1065l209 266h64l209 -266h-45l-197 248l-195 -248h-45z" />
<glyph unicode="&#x2dc;" horiz-adv-x="860" d="M143 1122q9 71 45 109.5t93 38.5q37 0 80 -19t75.5 -41.5t72 -41.5t71.5 -19q84 0 98 117l39 -6q-9 -71 -44.5 -109.5t-92.5 -38.5q-37 0 -80 19t-75.5 41.5t-72 41.5t-71.5 19q-47 0 -70 -34.5t-29 -82.5z" />
<glyph unicode="&#x2013;" horiz-adv-x="880" d="M41 492v36h799v-36h-799z" />
<glyph unicode="&#x2014;" horiz-adv-x="1495" d="M41 492v36h1413v-36h-1413z" />
<glyph unicode="&#x2018;" horiz-adv-x="448" d="M123 983l160 451h43l-160 -451h-43z" />
<glyph unicode="&#x2019;" horiz-adv-x="448" d="M123 983l160 451h43l-160 -451h-43z" />
<glyph unicode="&#x201a;" horiz-adv-x="448" d="M123 -287l160 451h43l-160 -451h-43z" />
<glyph unicode="&#x201c;" horiz-adv-x="817" d="M123 983l160 451h43l-160 -451h-43zM492 983l159 451h43l-159 -451h-43z" />
<glyph unicode="&#x201d;" horiz-adv-x="817" d="M123 983l160 451h43l-160 -451h-43zM492 983l159 451h43l-159 -451h-43z" />
<glyph unicode="&#x201e;" horiz-adv-x="817" d="M123 -287l160 451h43l-160 -451h-43zM492 -287l159 451h43l-159 -451h-43z" />
<glyph unicode="&#x2022;" horiz-adv-x="983" d="M164 451q0 135 96.5 231t231.5 96t231 -96t96 -231t-96 -231.5t-231 -96.5t-231.5 96.5t-96.5 231.5z" />
<glyph unicode="&#x2026;" horiz-adv-x="1454" d="M246 51q0 29 21 50.5t50 21.5t50.5 -21.5t21.5 -50.5t-21.5 -50t-50.5 -21t-50 21t-21 50zM696 51q0 29 21.5 50.5t50.5 21.5t50.5 -21.5t21.5 -50.5t-21.5 -50t-50.5 -21t-50.5 21t-21.5 50zM1147 51q0 29 21.5 50.5t50.5 21.5t50 -21.5t21 -50.5t-21 -50t-50 -21 t-50.5 21t-21.5 50z" />
<glyph unicode="&#x2039;" horiz-adv-x="634" d="M184 461v20l301 359h47l-307 -369l307 -369h-47z" />
<glyph unicode="&#x203a;" horiz-adv-x="634" d="M102 102l308 369l-308 369h48l301 -359v-20l-301 -359h-48z" />
<glyph unicode="&#x20ac;" horiz-adv-x="1198" d="M-10 535v36h151q-8 63 -8 146q0 82 8 145h-151v37h157q42 248 191.5 401.5t388.5 153.5q76 0 141 -18t117 -52t92.5 -75t79.5 -95l-33 -22q-81 111 -174.5 168t-222.5 57q-112 0 -205.5 -39.5t-159.5 -110t-110 -163.5t-64 -205h621v-37h-625q-10 -78 -10 -145 q0 -68 10 -146h625v-36h-619q27 -153 97 -267.5t189 -183t274 -68.5q265 0 413 226l35 -23q-154 -239 -448 -239q-249 0 -404.5 151.5t-198.5 403.5h-157z" />
<glyph unicode="&#x2122;" horiz-adv-x="1720" d="M143 1397v37h533v-37h-246v-748h-41v748h-246zM819 649v785h31l348 -598l348 598h31v-785h-41v697l-322 -558h-32l-322 558v-697h-41z" />
<glyph unicode="&#x25fc;" horiz-adv-x="901" d="M0 0v901h901v-901h-901z" />
</font>
</defs>
</svg>
